<?xml version="1.0" encoding="UTF-8"?>
<!DOCTYPE svg PUBLIC "-//W3C//DTD SVG 1.1//EN" "http://www.w3.org/Graphics/SVG/1.1/DTD/svg11.dtd">
<svg xmlns="http://www.w3.org/2000/svg" version="1.1" width="1024px" height="376px" style="shape-rendering:geometricPrecision; text-rendering:geometricPrecision; image-rendering:optimizeQuality; fill-rule:evenodd; clip-rule:evenodd" xmlns:xlink="http://www.w3.org/1999/xlink">
<g><path style="opacity:1" fill="#fefefe" d="M -0.5,-0.5 C 340.833,-0.5 682.167,-0.5 1023.5,-0.5C 1023.5,124.833 1023.5,250.167 1023.5,375.5C 682.167,375.5 340.833,375.5 -0.5,375.5C -0.5,250.167 -0.5,124.833 -0.5,-0.5 Z"/></g>
<g><path style="opacity:1" fill="#060405" d="M 153.5,114.5 C 157.497,118.665 161.33,122.998 165,127.5C 168.67,122.998 172.503,118.665 176.5,114.5C 198.634,90.8631 220.634,67.0297 242.5,43C 247.942,39.1106 253.942,36.6106 260.5,35.5C 283.167,35.5 305.833,35.5 328.5,35.5C 328.5,54.8333 328.5,74.1667 328.5,93.5C 328.104,101.854 325.604,109.52 321,116.5C 302.702,137.133 284.035,157.467 265,177.5C 264.333,196.167 264.333,214.833 265,233.5C 265.471,235.246 266.138,236.913 267,238.5C 287.333,260.833 307.667,283.167 328,305.5C 328.5,316.828 328.667,328.162 328.5,339.5C 305.164,339.667 281.831,339.5 258.5,339C 249.737,336.563 242.237,332.063 236,325.5C 216.301,303.637 196.467,281.971 176.5,260.5C 173.532,255.698 169.698,251.698 165,248.5C 160.49,251.854 156.657,255.854 153.5,260.5C 133.199,282.304 113.033,304.304 93,326.5C 86.5221,333.156 78.6888,337.323 69.5,339C 46.8358,339.5 24.1691,339.667 1.5,339.5C 1.33348,328.162 1.50014,316.828 2,305.5C 23.0402,282.629 43.8735,259.629 64.5,236.5C 64.8333,236.5 65.1667,236.5 65.5,236.5C 66.3317,218.671 66.8317,200.671 67,182.5C 67.3826,181.944 67.8826,181.611 68.5,181.5C 72.1396,185.806 76.1396,189.806 80.5,193.5C 81.2341,194.708 81.5674,196.041 81.5,197.5C 81.5,213.833 81.5,230.167 81.5,246.5C 63.8967,266.609 46.0633,286.609 28,306.5C 25.2436,309.927 21.9103,312.593 18,314.5C 17.5017,317.817 17.335,321.15 17.5,324.5C 23.8986,324.969 29.5653,323.136 34.5,319C 64,286.833 93.5,254.667 123,222.5C 124.275,220.283 125.275,217.949 126,215.5C 126.667,196.5 126.667,177.5 126,158.5C 124.729,155.567 123.062,152.901 121,150.5C 91.5,118.333 62,86.1667 32.5,54C 27.9007,51.133 22.9007,49.9664 17.5,50.5C 17.335,53.8499 17.5017,57.1832 18,60.5C 23.5675,64.0597 28.5675,68.393 33,73.5C 53.4089,96.0102 73.5756,118.677 93.5,141.5C 93.5,142.167 93.5,142.833 93.5,143.5C 93.1667,143.5 92.8333,143.5 92.5,143.5C 88.8427,147.459 85.176,151.459 81.5,155.5C 79.629,155.141 78.129,154.141 77,152.5C 67.3012,141.306 57.4678,130.306 47.5,119.5C 33.5403,103.704 19.3736,88.0373 5,72.5C 3.71894,79.543 4.71894,86.2097 8,92.5C 15.9967,102.328 24.4967,111.662 33.5,120.5C 47.4597,136.296 61.6264,151.963 76,167.5C 76.4828,168.448 76.6495,169.448 76.5,170.5C 73.4728,172.86 70.8062,175.527 68.5,178.5C 67.7784,178.918 67.2784,179.584 67,180.5C 66.7216,179.584 66.2216,178.918 65.5,178.5C 65.1667,177.5 64.5,176.833 63.5,176.5C 46.2059,157.37 28.7059,138.37 11,119.5C 6.66234,113.824 3.66234,107.49 2,100.5C 1.50004,78.8359 1.33337,57.1692 1.5,35.5C 24.8357,35.3334 48.169,35.5 71.5,36C 82.1824,39.0126 91.0157,44.846 98,53.5C 116.366,74.0289 134.866,94.3622 153.5,114.5 Z"/></g>
<g><path style="opacity:1" fill="#f8f9f8" d="M 81.5,246.5 C 85.8976,243.105 89.5643,239.105 92.5,234.5C 93.1174,234.389 93.6174,234.056 94,233.5C 94.4998,224.84 94.6664,216.173 94.5,207.5C 98.5641,203.048 102.397,198.381 106,193.5C 108.413,188.06 107.746,183.06 104,178.5C 100.63,175.465 97.6298,172.132 95,168.5C 94.8297,159.324 94.3297,150.324 93.5,141.5C 73.5756,118.677 53.4089,96.0102 33,73.5C 28.5675,68.393 23.5675,64.0597 18,60.5C 17.5017,57.1832 17.335,53.8499 17.5,50.5C 22.9007,49.9664 27.9007,51.133 32.5,54C 62,86.1667 91.5,118.333 121,150.5C 123.062,152.901 124.729,155.567 126,158.5C 126.667,177.5 126.667,196.5 126,215.5C 125.275,217.949 124.275,220.283 123,222.5C 93.5,254.667 64,286.833 34.5,319C 29.5653,323.136 23.8986,324.969 17.5,324.5C 17.335,321.15 17.5017,317.817 18,314.5C 21.9103,312.593 25.2436,309.927 28,306.5C 46.0633,286.609 63.8967,266.609 81.5,246.5 Z"/></g>
<g><path style="opacity:1" fill="#f8f8f7" d="M 236.5,143.5 C 236.5,151.167 236.5,158.833 236.5,166.5C 235.017,170.147 232.35,172.647 228.5,174C 214.5,174.667 200.5,174.667 186.5,174C 223.84,134.327 260.84,94.3266 297.5,54C 301.974,50.8777 306.974,49.711 312.5,50.5C 312.82,53.8984 312.487,57.2317 311.5,60.5C 306.554,63.943 302.054,67.943 298,72.5C 278.667,93.8333 259.333,115.167 240,136.5C 238.121,138.527 236.954,140.86 236.5,143.5 Z"/></g>
<g><path style="opacity:1" fill="#581b18" d="M 324.5,72.5 C 324.56,71.9569 324.893,71.6236 325.5,71.5C 326.806,74.9798 326.806,78.3132 325.5,81.5C 325.81,78.2869 325.477,75.2869 324.5,72.5 Z"/></g>
<g><path style="opacity:1" fill="#b8b9b9" d="M 260.5,35.5 C 283.327,34.5025 306.327,34.1692 329.5,34.5C 329.83,54.3404 329.497,74.0071 328.5,93.5C 328.5,74.1667 328.5,54.8333 328.5,35.5C 305.833,35.5 283.167,35.5 260.5,35.5 Z"/></g>
<g><path style="opacity:1" fill="#f5f5f5" d="M 47.5,119.5 C 43.03,120.486 38.3633,120.819 33.5,120.5C 24.4967,111.662 15.9967,102.328 8,92.5C 4.71894,86.2097 3.71894,79.543 5,72.5C 19.3736,88.0373 33.5403,103.704 47.5,119.5 Z"/></g>
<g><path style="opacity:1" fill="#db3c2f" d="M 44.5,37.5 C 52.3307,37.752 59.3307,40.252 65.5,45C 90.4715,72.6409 115.472,100.308 140.5,128C 135.833,128.667 131.167,128.667 126.5,128C 98.7919,98.012 71.4585,67.8453 44.5,37.5 Z"/></g>
<g><path style="opacity:1" fill="#dc382e" d="M 278.5,37.5 C 280.924,37.1924 283.257,37.5258 285.5,38.5C 257.982,68.1834 230.649,98.0168 203.5,128C 198.833,128.667 194.167,128.667 189.5,128C 213.333,101.5 237.167,75 261,48.5C 266.217,43.6528 272.05,39.9862 278.5,37.5 Z"/></g>
<g><path style="opacity:1" fill="#020202" d="M 431.5,106.5 C 436.911,105.956 441.078,107.956 444,112.5C 444.667,117.833 444.667,123.167 444,128.5C 441.527,134.779 438.527,140.779 435,146.5C 428.282,155.441 421.449,164.275 414.5,173C 424.202,185.899 431.702,200.066 437,215.5C 440.085,222.009 443.918,228.009 448.5,233.5C 453.086,236.376 457.586,239.376 462,242.5C 462.793,250.435 459.626,256.269 452.5,260C 446.388,260.909 440.388,260.576 434.5,259C 429.585,254.756 425.419,249.923 422,244.5C 412.56,226.173 403.893,207.506 396,188.5C 392.756,187.308 389.59,187.641 386.5,189.5C 385.964,209.222 385.131,228.889 384,248.5C 379.523,255.886 373.023,258.386 364.5,256C 361.865,254.039 360.031,251.539 359,248.5C 358.257,212.49 358.59,176.49 360,140.5C 360.462,131.317 362.795,122.651 367,114.5C 368.719,112.443 370.719,110.776 373,109.5C 378.756,111.982 382.423,116.316 384,122.5C 385.03,126.773 385.697,131.106 386,135.5C 386.333,146.167 386.667,156.833 387,167.5C 389.706,165.129 392.039,162.463 394,159.5C 402,146.833 410,134.167 418,121.5C 422.337,116.331 426.837,111.331 431.5,106.5 Z"/></g>
<g><path style="opacity:1" fill="#dc392f" d="M 324.5,72.5 C 325.477,75.2869 325.81,78.2869 325.5,81.5C 324.835,85.8272 323.335,89.8272 321,93.5C 312.967,102.364 304.8,111.031 296.5,119.5C 291.833,119.5 287.167,119.5 282.5,119.5C 296.5,103.833 310.5,88.1667 324.5,72.5 Z"/></g>
<g><path style="opacity:1" fill="#df382e" d="M 153.5,114.5 C 161.167,114.5 168.833,114.5 176.5,114.5C 172.503,118.665 168.67,122.998 165,127.5C 161.33,122.998 157.497,118.665 153.5,114.5 Z"/></g>
<g><path style="opacity:1" fill="#7e7c7c" d="M 199.5,131.5 C 176.833,130.167 154.167,130.167 131.5,131.5C 130.957,131.44 130.624,131.107 130.5,130.5C 153.833,129.167 177.167,129.167 200.5,130.5C 200.376,131.107 200.043,131.44 199.5,131.5 Z"/></g>
<g><path style="opacity:1" fill="#f9f9f9" d="M 131.5,131.5 C 154.167,130.167 176.833,130.167 199.5,131.5C 197.332,134.5 194.666,137 191.5,139C 185.564,140.139 179.564,140.805 173.5,141C 161.5,154.333 149.5,167.667 137.5,181C 151.698,198.689 166.031,216.189 180.5,233.5C 183.167,237.167 185.833,240.833 188.5,244.5C 169.326,244.83 150.326,244.497 131.5,243.5C 134.006,238.828 137.673,235.328 142.5,233C 148.5,232.667 154.5,232.333 160.5,232C 152.961,224.13 145.794,215.963 139,207.5C 134.897,202.295 131.563,196.628 129,190.5C 128.333,184.833 128.333,179.167 129,173.5C 133.69,161.988 140.19,151.654 148.5,142.5C 141.274,141.065 135.608,137.398 131.5,131.5 Z"/></g>
<g><path style="opacity:1" fill="#030303" d="M 991.5,142.5 C 999.434,140.96 1004.6,143.96 1007,151.5C 1008.25,190.972 1004.58,229.972 996,268.5C 990.448,288.447 978.948,303.947 961.5,315C 950.689,318.73 939.689,319.397 928.5,317C 922.195,310.442 918.362,302.609 917,293.5C 916.163,289.705 916.496,286.039 918,282.5C 922.947,290.717 930.114,293.55 939.5,291C 956.4,284.105 966.733,271.772 970.5,254C 970.333,252.833 970.167,251.667 970,250.5C 958.529,255.479 947.029,255.646 935.5,251C 928.379,244.469 925.379,236.303 926.5,226.5C 928.332,209.184 929.499,191.851 930,174.5C 923.565,173.517 917.065,173.517 910.5,174.5C 914.867,160.299 924.367,151.966 939,149.5C 948.245,150.738 954.578,155.738 958,164.5C 957.773,184.553 956.773,204.553 955,224.5C 961.198,225.502 967.365,225.002 973.5,223C 975.41,221.299 976.577,219.133 977,216.5C 978.578,196.277 981.578,176.277 986,156.5C 986.966,151.426 988.799,146.759 991.5,142.5 Z"/></g>
<g><path style="opacity:1" fill="#030303" d="M 546.5,144.5 C 563.273,144.275 571.273,152.608 570.5,169.5C 566.19,197.933 555.357,223.6 538,246.5C 533.756,251.415 528.923,255.581 523.5,259C 513.589,258.957 506.422,254.457 502,245.5C 497.869,235.773 494.536,225.773 492,215.5C 490.3,204.032 487.966,192.699 485,181.5C 483.394,174.231 479.227,169.065 472.5,166C 468.673,162.905 468.673,159.905 472.5,157C 479.634,152.797 487.3,151.463 495.5,153C 497.624,154.122 499.457,155.622 501,157.5C 510.954,174.433 516.621,192.767 518,212.5C 518.716,215.72 519.883,218.72 521.5,221.5C 532.534,210.957 541.034,198.624 547,184.5C 547.667,182.833 547.667,181.167 547,179.5C 533.33,173.492 530.33,164.158 538,151.5C 540.628,148.79 543.461,146.456 546.5,144.5 Z"/></g>
<g><path style="opacity:1" fill="#471615" d="M 92.5,143.5 C 92.8333,143.5 93.1667,143.5 93.5,143.5C 93.5,151.833 93.5,160.167 93.5,168.5C 93.1667,168.5 92.8333,168.5 92.5,168.5C 91.8333,168.5 91.5,168.167 91.5,167.5C 92.4924,159.684 92.8257,151.684 92.5,143.5 Z"/></g>
<g><path style="opacity:1" fill="#020202" d="M 626.5,146.5 C 633.888,146.253 641.221,146.753 648.5,148C 650.833,149.5 653.167,151 655.5,152.5C 661.803,148.297 667.636,148.964 673,154.5C 674.439,156.275 675.439,158.275 676,160.5C 675.833,181.497 675.833,202.497 676,223.5C 678.122,234.108 684.622,238.775 695.5,237.5C 695.644,250.011 689.644,257.344 677.5,259.5C 673.481,259.493 669.815,258.327 666.5,256C 661.649,252.406 656.983,248.572 652.5,244.5C 638.955,254.136 623.955,257.636 607.5,255C 591.151,246.472 584.151,232.972 586.5,214.5C 584.723,191.986 591.723,172.82 607.5,157C 613.316,152.428 619.649,148.928 626.5,146.5 Z"/></g>
<g><path style="opacity:1" fill="#030303" d="M 715.5,147.5 C 718.928,147.547 721.928,148.713 724.5,151C 727.026,154.026 729.36,157.193 731.5,160.5C 737.605,152.945 745.605,148.779 755.5,148C 772.873,144.885 784.04,151.718 789,168.5C 789.333,188.167 789.667,207.833 790,227.5C 790.308,228.308 790.808,228.975 791.5,229.5C 793.833,228.167 796.167,226.833 798.5,225.5C 798.846,235.616 795.513,244.45 788.5,252C 775.394,255.53 767.228,250.697 764,237.5C 763.755,218.143 763.589,198.809 763.5,179.5C 754.193,175.244 744.693,174.577 735,177.5C 734.42,195.192 733.42,212.859 732,230.5C 731.298,236.639 729.965,242.639 728,248.5C 723.82,257.061 717.653,259.061 709.5,254.5C 708.667,253.5 707.833,252.5 707,251.5C 705.174,239.515 705.174,227.515 707,215.5C 707.667,201.5 707.667,187.5 707,173.5C 704.827,171.36 702.327,171.026 699.5,172.5C 699.046,160.399 704.379,152.065 715.5,147.5 Z"/></g>
<g><path style="opacity:1" fill="#030303" d="M 857.5,147.5 C 870.372,146.107 882.372,148.607 893.5,155C 904.788,163.451 907.622,174.285 902,187.5C 896.574,193.698 889.741,196.032 881.5,194.5C 875.631,194.812 869.964,193.979 864.5,192C 863.101,190.938 862.101,189.605 861.5,188C 864.453,185.184 867.787,182.851 871.5,181C 873.923,179.429 875.256,177.263 875.5,174.5C 854.926,171.379 841.093,179.712 834,199.5C 832.529,205.431 832.196,211.431 833,217.5C 845.58,231.856 861.08,236.023 879.5,230C 886.603,227.799 893.603,225.299 900.5,222.5C 904.249,242.255 896.249,254.088 876.5,258C 851.755,261.209 831.255,253.375 815,234.5C 810.426,227.375 808.259,219.542 808.5,211C 810.046,178.301 826.379,157.135 857.5,147.5 Z"/></g>
<g><path style="opacity:1" fill="#de372e" d="M 92.5,143.5 C 92.8257,151.684 92.4924,159.684 91.5,167.5C 87.7668,163.773 84.4335,159.773 81.5,155.5C 85.176,151.459 88.8427,147.459 92.5,143.5 Z"/></g>
<g><path style="opacity:1" fill="#601a19" d="M 236.5,143.5 C 237.492,143.328 238.158,143.662 238.5,144.5C 237.167,152.167 237.167,159.833 238.5,167.5C 238.167,168.167 237.833,168.833 237.5,169.5C 236.596,168.791 236.263,167.791 236.5,166.5C 236.5,158.833 236.5,151.167 236.5,143.5 Z"/></g>
<g><path style="opacity:1" fill="#e23b32" d="M 238.5,144.5 C 241.805,148.141 245.138,151.808 248.5,155.5C 245.596,159.748 242.263,163.748 238.5,167.5C 237.167,159.833 237.167,152.167 238.5,144.5 Z"/></g>
<g><path style="opacity:1" fill="#4b73a1" d="M 47.5,119.5 C 57.4678,130.306 67.3012,141.306 77,152.5C 78.129,154.141 79.629,155.141 81.5,155.5C 84.4335,159.773 87.7668,163.773 91.5,167.5C 91.5,168.167 91.8333,168.5 92.5,168.5C 92.5,182.5 92.5,196.5 92.5,210.5C 88.4579,206.46 84.7912,202.127 81.5,197.5C 81.5674,196.041 81.2341,194.708 80.5,193.5C 80.8905,186.079 80.3905,178.746 79,171.5C 78.3292,170.748 77.4959,170.414 76.5,170.5C 76.6495,169.448 76.4828,168.448 76,167.5C 61.6264,151.963 47.4597,136.296 33.5,120.5C 38.3633,120.819 43.03,120.486 47.5,119.5 Z"/></g>
<g><path style="opacity:1" fill="#4a729f" d="M 282.5,119.5 C 287.167,119.5 291.833,119.5 296.5,119.5C 282.579,136.259 268.079,152.593 253,168.5C 250.123,172.337 248.623,176.67 248.5,181.5C 246.076,188.027 242.409,193.693 237.5,198.5C 237.5,188.833 237.5,179.167 237.5,169.5C 237.833,168.833 238.167,168.167 238.5,167.5C 242.263,163.748 245.596,159.748 248.5,155.5C 260.199,143.802 271.532,131.802 282.5,119.5 Z"/></g>
<g><path style="opacity:1" fill="#101011" d="M 93.5,141.5 C 94.3297,150.324 94.8297,159.324 95,168.5C 97.6298,172.132 100.63,175.465 104,178.5C 107.746,183.06 108.413,188.06 106,193.5C 102.397,198.381 98.5641,203.048 94.5,207.5C 93.5045,194.677 93.1712,181.677 93.5,168.5C 93.5,160.167 93.5,151.833 93.5,143.5C 93.5,142.833 93.5,142.167 93.5,141.5 Z"/></g>
<g><path style="opacity:1" fill="#fcfcfc" d="M 635.5,170.5 C 640.167,170.5 644.833,170.5 649.5,170.5C 649.5,177.167 649.5,183.833 649.5,190.5C 648.693,202.163 647.859,213.83 647,225.5C 643.951,227.964 640.451,229.464 636.5,230C 631.167,230.667 625.833,230.667 620.5,230C 614.16,225.148 611.16,218.648 611.5,210.5C 611.256,195.501 616.589,183.001 627.5,173C 629.909,171.293 632.575,170.46 635.5,170.5 Z"/></g>
<g><path style="opacity:1" fill="#707070" d="M 635.5,170.5 C 640.305,169.513 645.305,169.179 650.5,169.5C 650.825,176.687 650.491,183.687 649.5,190.5C 649.5,183.833 649.5,177.167 649.5,170.5C 644.833,170.5 640.167,170.5 635.5,170.5 Z"/></g>
<g><path style="opacity:1" fill="#e0382f" d="M 76.5,170.5 C 77.4959,170.414 78.3292,170.748 79,171.5C 80.3905,178.746 80.8905,186.079 80.5,193.5C 76.1396,189.806 72.1396,185.806 68.5,181.5C 68.5,180.5 68.5,179.5 68.5,178.5C 70.8062,175.527 73.4728,172.86 76.5,170.5 Z"/></g>
<g><path style="opacity:1" fill="#403a46" d="M 92.5,168.5 C 92.8333,168.5 93.1667,168.5 93.5,168.5C 93.1712,181.677 93.5045,194.677 94.5,207.5C 94.6664,216.173 94.4998,224.84 94,233.5C 93.6174,234.056 93.1174,234.389 92.5,234.5C 92.5,226.5 92.5,218.5 92.5,210.5C 92.5,196.5 92.5,182.5 92.5,168.5 Z"/></g>
<g><path style="opacity:1" fill="#494949" d="M 222.5,191.5 C 209.989,191.171 197.655,191.505 185.5,192.5C 184.957,192.44 184.624,192.107 184.5,191.5C 197.327,190.175 209.994,190.175 222.5,191.5 Z"/></g>
<g><path style="opacity:1" fill="#f8f8f8" d="M 222.5,191.5 C 227.511,196.349 232.011,201.683 236,207.5C 236.17,216.676 236.67,225.676 237.5,234.5C 239.788,238.456 242.788,241.789 246.5,244.5C 246.833,245.5 247.5,246.167 248.5,246.5C 265.792,266.296 283.292,285.962 301,305.5C 304.058,309.062 307.558,312.062 311.5,314.5C 312.487,317.768 312.82,321.102 312.5,324.5C 305.106,325.385 298.939,323.052 294,317.5C 270.333,291.167 246.667,264.833 223,238.5C 210.287,223.293 197.787,207.959 185.5,192.5C 197.655,191.505 209.989,191.171 222.5,191.5 Z"/></g>
<g><path style="opacity:1" fill="#e4392e" d="M 248.5,195.5 C 247.833,211.833 247.167,228.167 246.5,244.5C 242.788,241.789 239.788,238.456 237.5,234.5C 237.5,222.5 237.5,210.5 237.5,198.5C 242.409,193.693 246.076,188.027 248.5,181.5C 250.021,178.277 251.354,174.943 252.5,171.5C 256.236,173.398 259.236,176.232 261.5,180C 256.939,185.053 252.606,190.22 248.5,195.5 Z"/></g>
<g><path style="opacity:1" fill="#e1382e" d="M 81.5,197.5 C 84.7912,202.127 88.4579,206.46 92.5,210.5C 92.5,218.5 92.5,226.5 92.5,234.5C 89.5643,239.105 85.8976,243.105 81.5,246.5C 81.5,230.167 81.5,213.833 81.5,197.5 Z"/></g>
<g><path style="opacity:1" fill="#dcdcdc" d="M 63.5,176.5 C 64.5,176.833 65.1667,177.5 65.5,178.5C 65.5,197.833 65.5,217.167 65.5,236.5C 65.1667,236.5 64.8333,236.5 64.5,236.5C 64.8095,216.454 64.4762,196.454 63.5,176.5 Z"/></g>
<g><path style="opacity:1" fill="#ca3836" d="M 248.5,195.5 C 248.5,212.5 248.5,229.5 248.5,246.5C 247.5,246.167 246.833,245.5 246.5,244.5C 247.167,228.167 247.833,211.833 248.5,195.5 Z"/></g>
<g><path style="opacity:1" fill="#272727" d="M 65.5,178.5 C 66.2216,178.918 66.7216,179.584 67,180.5C 67.2784,179.584 67.7784,178.918 68.5,178.5C 68.5,179.5 68.5,180.5 68.5,181.5C 67.8826,181.611 67.3826,181.944 67,182.5C 66.8317,200.671 66.3317,218.671 65.5,236.5C 65.5,217.167 65.5,197.833 65.5,178.5 Z"/></g>
<g><path style="opacity:1" fill="#49739d" d="M 180.5,233.5 C 190.147,232.156 197.147,235.823 201.5,244.5C 197.555,245.491 193.555,245.824 189.5,245.5C 189.5,244.833 189.167,244.5 188.5,244.5C 185.833,240.833 183.167,237.167 180.5,233.5 Z"/></g>
<g><path style="opacity:1" fill="#cecdce" d="M 131.5,243.5 C 150.326,244.497 169.326,244.83 188.5,244.5C 189.167,244.5 189.5,244.833 189.5,245.5C 173.5,245.5 157.5,245.5 141.5,245.5C 137.833,245.5 134.167,245.5 130.5,245.5C 130.328,244.508 130.662,243.842 131.5,243.5 Z"/></g>
<g><path style="opacity:1" fill="#3d0c0f" d="M 128.5,246.5 C 128.842,245.662 129.508,245.328 130.5,245.5C 134.167,245.5 137.833,245.5 141.5,245.5C 141.672,246.492 141.338,247.158 140.5,247.5C 136.702,246.517 132.702,246.183 128.5,246.5 Z"/></g>
<g><path style="opacity:1" fill="#db3c31" d="M 190.5,246.5 C 195.297,246.121 199.964,246.621 204.5,248C 231.72,276.717 258.386,305.884 284.5,335.5C 276.916,337.103 270.25,335.27 264.5,330C 241.316,305.117 218.483,279.95 196,254.5C 193.92,251.935 192.087,249.268 190.5,246.5 Z"/></g>
<g><path style="opacity:1" fill="#de382e" d="M 176.5,260.5 C 168.833,260.5 161.167,260.5 153.5,260.5C 156.657,255.854 160.49,251.854 165,248.5C 169.698,251.698 173.532,255.698 176.5,260.5 Z"/></g>
<g><path style="opacity:1" fill="#dd372e" d="M 128.5,246.5 C 132.702,246.183 136.702,246.517 140.5,247.5C 115.067,275.437 89.4007,303.271 63.5,331C 58.1932,335.495 52.1932,336.995 45.5,335.5C 69.1849,309.649 92.6849,283.649 116,257.5C 119.761,253.23 123.928,249.563 128.5,246.5 Z"/></g>
</svg>
