<?xml version="1.0" encoding="UTF-8"?>
<!DOCTYPE svg PUBLIC "-//W3C//DTD SVG 1.1//EN" "http://www.w3.org/Graphics/SVG/1.1/DTD/svg11.dtd">
<svg xmlns="http://www.w3.org/2000/svg" version="1.1" width="1024px" height="376px" style="shape-rendering:geometricPrecision; text-rendering:geometricPrecision; image-rendering:optimizeQuality; fill-rule:evenodd; clip-rule:evenodd" xmlns:xlink="http://www.w3.org/1999/xlink">
<g><path style="opacity:1" fill="#fefefe" d="M -0.5,-0.5 C 340.833,-0.5 682.167,-0.5 1023.5,-0.5C 1023.5,124.833 1023.5,250.167 1023.5,375.5C 682.167,375.5 340.833,375.5 -0.5,375.5C -0.5,250.167 -0.5,124.833 -0.5,-0.5 Z"/></g>
<g><path style="opacity:1" fill="#060405" d="M 90.5,35.5 C 99.1705,36.8358 106.837,40.3358 113.5,46C 134.366,69.0295 155.366,91.8628 176.5,114.5C 179.768,119.107 183.435,123.441 187.5,127.5C 191.536,123.466 195.202,119.132 198.5,114.5C 215.836,96.6627 232.669,78.3294 249,59.5C 255.224,52.9401 261.724,46.7735 268.5,41C 272.048,39.0593 275.714,37.3926 279.5,36C 303.498,35.5 327.498,35.3334 351.5,35.5C 351.667,56.1694 351.5,76.836 351,97.5C 349.904,105.353 346.904,112.353 342,118.5C 323.298,138.2 304.965,158.2 287,178.5C 286.333,195.833 286.333,213.167 287,230.5C 287.29,232.952 287.956,235.285 289,237.5C 309.667,260.167 330.333,282.833 351,305.5C 351.5,316.828 351.667,328.162 351.5,339.5C 327.831,339.667 304.164,339.5 280.5,339C 269.901,335.443 261.067,329.277 254,320.5C 235.968,300.305 217.801,280.305 199.5,260.5C 195.494,256.161 191.494,251.828 187.5,247.5C 183.478,251.854 179.478,256.187 175.5,260.5C 157.171,280.33 139.004,300.33 121,320.5C 113.587,329.919 104.087,336.086 92.5,339C 69.5024,339.5 46.5024,339.667 23.5,339.5C 23.3335,328.162 23.5001,316.828 24,305.5C 45.1009,282.31 66.4343,259.31 88,236.5C 88.6667,217.167 88.6667,197.833 88,178.5C 69.7017,157.867 51.0351,137.533 32,117.5C 27.6241,111.539 25.1241,104.873 24.5,97.5C 24.5,76.8333 24.5,56.1667 24.5,35.5C 46.5,35.5 68.5,35.5 90.5,35.5 Z"/></g>
<g><path style="opacity:1" fill="#f7f7f7" d="M 48.5,323.5 C 45.8333,323.5 43.1667,323.5 40.5,323.5C 40.5,320.5 40.5,317.5 40.5,314.5C 46.3793,310.13 51.8793,305.13 57,299.5C 72.7419,282.323 88.2419,264.99 103.5,247.5C 104.167,247.5 104.5,247.167 104.5,246.5C 108.876,243.126 112.542,239.126 115.5,234.5C 116.33,225.342 116.83,216.009 117,206.5C 121.035,202.8 124.702,198.8 128,194.5C 129.932,189.806 129.932,185.139 128,180.5C 124.702,176.2 121.035,172.2 117,168.5C 116.667,159.167 116.333,149.833 116,140.5C 92.8692,114.367 69.3692,88.5341 45.5,63C 43.8333,62.1667 42.1667,61.3333 40.5,60.5C 39.513,57.2317 39.1796,53.8984 39.5,50.5C 47.2149,49.5707 53.7149,51.9041 59,57.5C 86,87.1667 113,116.833 140,146.5C 141.626,149.128 143.626,151.461 146,153.5C 147.275,155.717 148.275,158.051 149,160.5C 149.667,178.167 149.667,195.833 149,213.5C 148.197,216.244 147.197,218.911 146,221.5C 115.5,254.667 85,287.833 54.5,321C 52.5932,322.122 50.5932,322.955 48.5,323.5 Z"/></g>
<g><path style="opacity:1" fill="#f8f8f8" d="M 249.5,174.5 C 235.99,174.829 222.656,174.496 209.5,173.5C 246.066,135.437 281.732,96.6035 316.5,57C 319.228,54.6078 322.228,52.6078 325.5,51C 328.817,50.5017 332.15,50.335 335.5,50.5C 335.82,53.8984 335.487,57.2317 334.5,60.5C 331.053,61.6395 328.219,63.6395 326,66.5C 304.036,91.4656 281.703,116.132 259,140.5C 258.667,149.833 258.333,159.167 258,168.5C 255.823,171.523 252.989,173.523 249.5,174.5 Z"/></g>
<g><path style="opacity:1" fill="#db3c2f" d="M 67.5,37.5 C 74.4127,37.9555 80.7461,40.1222 86.5,44C 112.387,71.3844 137.72,99.2177 162.5,127.5C 157.416,128.89 152.416,128.723 147.5,127C 123.035,99.5337 98.2021,72.367 73,45.5C 70.9205,42.9348 69.0872,40.2682 67.5,37.5 Z"/></g>
<g><path style="opacity:1" fill="#696969" d="M 90.5,35.5 C 68.5,35.5 46.5,35.5 24.5,35.5C 24.5,56.1667 24.5,76.8333 24.5,97.5C 23.5027,76.6733 23.1694,55.6733 23.5,34.5C 46.0062,34.1692 68.3396,34.5026 90.5,35.5 Z"/></g>
<g><path style="opacity:1" fill="#f3f3f3" d="M 70.5,119.5 C 66.03,120.486 61.3633,120.819 56.5,120.5C 47.1638,111.329 38.3304,101.662 30,91.5C 26.9081,85.1682 25.9081,78.5016 27,71.5C 41.7068,87.3705 56.2068,103.371 70.5,119.5 Z"/></g>
<g><path style="opacity:1" fill="#dc372e" d="M 301.5,37.5 C 303.924,37.1924 306.257,37.5258 308.5,38.5C 283.177,65.9912 258.01,93.6579 233,121.5C 227.701,128.349 220.867,130.349 212.5,127.5C 237.641,98.8584 263.308,70.6917 289.5,43C 293.284,40.4713 297.284,38.638 301.5,37.5 Z"/></g>
<g><path style="opacity:1" fill="#de392f" d="M 319.5,119.5 C 314.833,119.5 310.167,119.5 305.5,119.5C 319.277,103.595 333.277,87.9282 347.5,72.5C 349.21,78.8554 348.377,84.8554 345,90.5C 336.635,100.36 328.135,110.027 319.5,119.5 Z"/></g>
<g><path style="opacity:1" fill="#040404" d="M 495.5,110.5 C 504.163,111.799 507.33,116.799 505,125.5C 502.94,130.62 500.607,135.62 498,140.5C 492.858,147.955 487.358,155.121 481.5,162C 484.117,165.395 486.617,168.895 489,172.5C 494.077,183.653 499.41,194.653 505,205.5C 508.782,209.28 513.116,212.28 518,214.5C 518.925,220.484 516.758,224.984 511.5,228C 505.508,229.172 499.841,228.505 494.5,226C 491.281,222.448 488.448,218.615 486,214.5C 479.451,201.404 473.451,188.07 468,174.5C 465.333,173.167 462.667,173.167 460,174.5C 459.667,188.833 459.333,203.167 459,217.5C 456.047,225.146 450.547,227.646 442.5,225C 440.951,223.786 439.785,222.286 439,220.5C 438.333,195.833 438.333,171.167 439,146.5C 439.041,137.629 440.375,128.962 443,120.5C 444.25,117.084 446.417,114.417 449.5,112.5C 456.086,116.995 459.586,123.328 460,131.5C 460.332,140.514 460.332,149.514 460,158.5C 468.496,146.844 476.496,134.844 484,122.5C 487.364,117.971 491.197,113.971 495.5,110.5 Z"/></g>
<g><path style="opacity:1" fill="#db382e" d="M 176.5,114.5 C 183.833,114.5 191.167,114.5 198.5,114.5C 195.202,119.132 191.536,123.466 187.5,127.5C 183.435,123.441 179.768,119.107 176.5,114.5 Z"/></g>
<g><path style="opacity:1" fill="#7d7c7b" d="M 222.5,131.5 C 199.833,130.167 177.167,130.167 154.5,131.5C 153.957,131.44 153.624,131.107 153.5,130.5C 176.833,129.167 200.167,129.167 223.5,130.5C 223.376,131.107 223.043,131.44 222.5,131.5 Z"/></g>
<g><path style="opacity:1" fill="#f9f9f9" d="M 222.5,131.5 C 220.275,134.889 217.275,137.389 213.5,139C 207.915,140.186 202.249,140.852 196.5,141C 183.747,153.748 171.747,167.082 160.5,181C 174.684,198.678 189.017,216.178 203.5,233.5C 205.808,236.815 208.141,240.149 210.5,243.5C 191.5,244.833 172.5,244.833 153.5,243.5C 156.639,239.53 160.305,236.03 164.5,233C 170.5,232.667 176.5,232.333 182.5,232C 175,223.167 167.5,214.333 160,205.5C 156.479,200.458 153.479,195.125 151,189.5C 150.039,182.664 150.705,175.997 153,169.5C 157.828,159.519 163.995,150.519 171.5,142.5C 172.043,142.44 172.376,142.107 172.5,141.5C 170.257,140.526 167.924,140.192 165.5,140.5C 160.957,138.628 157.29,135.628 154.5,131.5C 177.167,130.167 199.833,130.167 222.5,131.5 Z"/></g>
<g><path style="opacity:1" fill="#030303" d="M 925.5,138.5 C 930.635,137.426 934.468,139.093 937,143.5C 939.543,177.88 935.877,211.547 926,244.5C 920.271,256.229 911.771,265.396 900.5,272C 893.233,273.515 885.899,273.848 878.5,273C 876.714,272.215 875.214,271.049 874,269.5C 869.6,262.388 867.934,254.721 869,246.5C 873.884,252.22 880.05,254.053 887.5,252C 900.742,245.985 907.909,235.818 909,221.5C 902.136,224.361 894.97,225.194 887.5,224C 877.483,219.628 873.816,211.961 876.5,201C 877.365,188.166 877.865,175.332 878,162.5C 873.212,162.276 868.378,161.943 863.5,161.5C 867.956,149.845 876.289,144.012 888.5,144C 897.688,147.543 901.355,154.21 899.5,164C 898.562,176.822 897.895,189.655 897.5,202.5C 903.48,202.89 908.98,201.557 914,198.5C 915.469,185.475 917.136,172.475 919,159.5C 920.714,152.298 922.881,145.298 925.5,138.5 Z"/></g>
<g><path style="opacity:1" fill="#8d8d8d" d="M 165.5,140.5 C 167.924,140.192 170.257,140.526 172.5,141.5C 172.376,142.107 172.043,142.44 171.5,142.5C 169.5,141.833 167.5,141.167 165.5,140.5 Z"/></g>
<g><path style="opacity:1" fill="#040404" d="M 583.5,139.5 C 595.523,139.317 601.523,145.15 601.5,157C 598.477,183.043 588.144,205.71 570.5,225C 568.44,226.696 566.107,227.863 563.5,228.5C 557.845,227.099 553.345,224.099 550,219.5C 547.471,213.579 545.137,207.579 543,201.5C 541.19,189.303 538.523,177.303 535,165.5C 531.976,160.657 528.476,156.324 524.5,152.5C 524.608,151.558 524.941,150.725 525.5,150C 530.967,146.176 536.967,144.842 543.5,146C 545.286,146.785 546.786,147.951 548,149.5C 556.373,163.648 561.04,178.981 562,195.5C 562.29,197.044 562.956,198.377 564,199.5C 572.394,191.052 579.061,181.385 584,170.5C 584.667,169.167 584.667,167.833 584,166.5C 573.878,162.8 571.212,156.133 576,146.5C 578.396,143.933 580.896,141.6 583.5,139.5 Z"/></g>
<g><path style="opacity:1" fill="#050505" d="M 643.5,141.5 C 649.176,141.334 654.843,141.501 660.5,142C 662.762,143.047 664.929,144.213 667,145.5C 674.766,142.201 680.099,144.535 683,152.5C 682.742,169.161 682.742,185.828 683,202.5C 685.655,208.915 690.489,211.915 697.5,211.5C 696.512,226.153 689.179,230.987 675.5,226C 671.701,223.203 668.201,220.036 665,216.5C 654.679,224.05 643.179,226.884 630.5,225C 617.446,218.275 611.78,207.608 613.5,193C 612.4,168.993 622.4,151.826 643.5,141.5 Z"/></g>
<g><path style="opacity:1" fill="#030303" d="M 712.5,142.5 C 718.134,143.444 722.467,146.444 725.5,151.5C 733.949,143.57 743.949,140.736 755.5,143C 763.389,145.258 768.222,150.425 770,158.5C 770.5,173.83 770.667,189.163 770.5,204.5C 772.827,204.753 774.827,204.086 776.5,202.5C 777.259,209.731 775.259,216.231 770.5,222C 760.617,225.641 754.117,222.475 751,212.5C 750.352,197.155 750.519,181.822 751.5,166.5C 743.713,164.385 735.88,164.051 728,165.5C 728.07,182.62 726.737,199.62 724,216.5C 722.753,224.426 718.253,227.593 710.5,226C 706.074,222.212 704.408,217.378 705.5,211.5C 706.881,195.186 707.381,178.852 707,162.5C 705.946,160.246 704.446,159.913 702.5,161.5C 700.591,152.409 703.924,146.075 712.5,142.5 Z"/></g>
<g><path style="opacity:1" fill="#050505" d="M 819.5,142.5 C 830.444,141.176 840.777,143.01 850.5,148C 858.514,154.527 860.681,162.694 857,172.5C 855.457,174.378 853.624,175.878 851.5,177C 843.369,179.241 835.369,178.908 827.5,176C 826.643,175.311 825.977,174.478 825.5,173.5C 828.109,170.856 831.109,168.689 834.5,167C 836.007,166.163 836.507,164.996 836,163.5C 821.015,160.452 810.682,166.119 805,180.5C 800.874,190.676 803.374,198.51 812.5,204C 816.687,206.339 821.187,207.505 826,207.5C 836.431,206.183 846.598,203.85 856.5,200.5C 858.251,214.177 852.584,223.011 839.5,227C 818.304,229.976 801.137,223.143 788,206.5C 780.061,176.045 790.561,154.711 819.5,142.5 Z"/></g>
<g><path style="opacity:1" fill="#4a729e" d="M 305.5,119.5 C 310.167,119.5 314.833,119.5 319.5,119.5C 305.54,135.296 291.374,150.963 277,166.5C 273.509,170.146 271.676,174.48 271.5,179.5C 271.628,181.655 271.128,183.655 270,185.5C 267.336,189.657 264.503,193.657 261.5,197.5C 260.833,197.833 260.167,198.167 259.5,198.5C 259.5,188.5 259.5,178.5 259.5,168.5C 260.167,168.5 260.5,168.167 260.5,167.5C 263.8,164.365 266.967,161.031 270,157.5C 270.483,156.552 270.649,155.552 270.5,154.5C 271.117,154.611 271.617,154.944 272,155.5C 283.4,143.604 294.567,131.604 305.5,119.5 Z"/></g>
<g><path style="opacity:1" fill="#de372d" d="M 113.5,145.5 C 114.833,152.5 114.833,159.5 113.5,166.5C 110.195,162.859 106.862,159.192 103.5,155.5C 106.5,151.833 109.833,148.5 113.5,145.5 Z"/></g>
<g><path style="opacity:1" fill="#9c2c29" d="M 261.5,145.5 C 260.508,152.648 260.175,159.981 260.5,167.5C 260.5,168.167 260.167,168.5 259.5,168.5C 259.169,160.14 259.502,151.807 260.5,143.5C 261.298,143.957 261.631,144.624 261.5,145.5 Z"/></g>
<g><path style="opacity:1" fill="#4a73a0" d="M 70.5,119.5 C 81.5,131.5 92.5,143.5 103.5,155.5C 106.862,159.192 110.195,162.859 113.5,166.5C 113.833,167.5 114.5,168.167 115.5,168.5C 115.5,182.5 115.5,196.5 115.5,210.5C 111.475,207.442 108.142,203.775 105.5,199.5C 105.167,198.5 104.5,197.833 103.5,197.5C 103.5,196.5 103.5,195.5 103.5,194.5C 103.824,187.646 103.491,180.979 102.5,174.5C 102.167,172.167 100.833,170.833 98.5,170.5C 98.6107,169.883 98.944,169.383 99.5,169C 84.5648,153.24 70.2314,137.073 56.5,120.5C 61.3633,120.819 66.03,120.486 70.5,119.5 Z"/></g>
<g><path style="opacity:1" fill="#ab3330" d="M 115.5,168.5 C 114.5,168.167 113.833,167.5 113.5,166.5C 114.833,159.5 114.833,152.5 113.5,145.5C 113.369,144.624 113.702,143.957 114.5,143.5C 115.498,151.807 115.831,160.14 115.5,168.5 Z"/></g>
<g><path style="opacity:1" fill="#fbfbfb" d="M 649.5,159.5 C 653.833,159.5 658.167,159.5 662.5,159.5C 662.393,173.512 661.893,187.512 661,201.5C 656.787,204.868 651.953,206.201 646.5,205.5C 643.833,205.333 641.167,205.167 638.5,205C 637.696,203.229 636.529,201.729 635,200.5C 631.486,187.072 633.986,174.905 642.5,164C 644.76,162.212 647.093,160.712 649.5,159.5 Z"/></g>
<g><path style="opacity:1" fill="#df3931" d="M 261.5,145.5 C 264.833,148.167 267.833,151.167 270.5,154.5C 270.649,155.552 270.483,156.552 270,157.5C 266.967,161.031 263.8,164.365 260.5,167.5C 260.175,159.981 260.508,152.648 261.5,145.5 Z"/></g>
<g><path style="opacity:1" fill="#323232" d="M 209.5,173.5 C 222.656,174.496 235.99,174.829 249.5,174.5C 235.994,175.826 222.328,175.826 208.5,174.5C 208.624,173.893 208.957,173.56 209.5,173.5 Z"/></g>
<g><path style="opacity:1" fill="#ad4751" d="M 102.5,174.5 C 103.491,180.979 103.824,187.646 103.5,194.5C 102.167,193.833 101.167,192.833 100.5,191.5C 102.45,186.265 103.117,180.598 102.5,174.5 Z"/></g>
<g><path style="opacity:1" fill="#e23830" d="M 98.5,170.5 C 100.833,170.833 102.167,172.167 102.5,174.5C 103.117,180.598 102.45,186.265 100.5,191.5C 96.9792,187.814 93.6459,183.98 90.5,180C 92.9882,176.679 95.6549,173.512 98.5,170.5 Z"/></g>
<g><path style="opacity:1" fill="#cf3932" d="M 271.5,247.5 C 270.833,247.5 270.5,247.167 270.5,246.5C 270.667,229.497 270.5,212.497 270,195.5C 269.586,195.043 269.086,194.709 268.5,194.5C 266.513,196.327 264.179,197.327 261.5,197.5C 264.503,193.657 267.336,189.657 270,185.5C 271.128,183.655 271.628,181.655 271.5,179.5C 272.795,176.637 274.462,173.97 276.5,171.5C 279.701,173.866 282.367,176.7 284.5,180C 279.978,184.858 275.812,190.024 272,195.5C 271.5,212.83 271.333,230.163 271.5,247.5 Z"/></g>
<g><path style="opacity:1" fill="#f8f9f8" d="M 259.5,234.5 C 259.5,235.167 259.833,235.5 260.5,235.5C 263.862,239.192 267.195,242.859 270.5,246.5C 270.5,247.167 270.833,247.5 271.5,247.5C 287.83,265.331 303.996,283.331 320,301.5C 324.406,306.411 329.24,310.745 334.5,314.5C 334.5,317.5 334.5,320.5 334.5,323.5C 331.833,323.5 329.167,323.5 326.5,323.5C 324.407,322.955 322.407,322.122 320.5,321C 281.343,279.185 243.677,236.185 207.5,192C 220.513,191.167 233.513,191.334 246.5,192.5C 250.144,197.312 253.978,201.979 258,206.5C 258.17,216.009 258.67,225.342 259.5,234.5 Z"/></g>
<g><path style="opacity:1" fill="#e5392e" d="M 270.5,246.5 C 267.195,242.859 263.862,239.192 260.5,235.5C 260.205,222.784 260.538,210.117 261.5,197.5C 264.179,197.327 266.513,196.327 268.5,194.5C 269.086,194.709 269.586,195.043 270,195.5C 270.5,212.497 270.667,229.497 270.5,246.5 Z"/></g>
<g><path style="opacity:1" fill="#e3392f" d="M 105.5,199.5 C 108.142,203.775 111.475,207.442 115.5,210.5C 115.5,218.5 115.5,226.5 115.5,234.5C 112.542,239.126 108.876,243.126 104.5,246.5C 104.17,230.658 104.504,214.991 105.5,199.5 Z"/></g>
<g><path style="opacity:1" fill="#9d2d2d" d="M 261.5,197.5 C 260.538,210.117 260.205,222.784 260.5,235.5C 259.833,235.5 259.5,235.167 259.5,234.5C 259.5,222.5 259.5,210.5 259.5,198.5C 260.167,198.167 260.833,197.833 261.5,197.5 Z"/></g>
<g><path style="opacity:1" fill="#822526" d="M 103.5,197.5 C 104.5,197.833 105.167,198.5 105.5,199.5C 104.504,214.991 104.17,230.658 104.5,246.5C 104.5,247.167 104.167,247.5 103.5,247.5C 103.5,230.833 103.5,214.167 103.5,197.5 Z"/></g>
<g><path style="opacity:1" fill="#49749f" d="M 203.5,233.5 C 212.832,232.496 219.499,236.163 223.5,244.5C 219.893,245.489 216.226,245.823 212.5,245.5C 212.167,244.5 211.5,243.833 210.5,243.5C 208.141,240.149 205.808,236.815 203.5,233.5 Z"/></g>
<g><path style="opacity:1" fill="#cdcdcd" d="M 153.5,243.5 C 172.5,244.833 191.5,244.833 210.5,243.5C 211.5,243.833 212.167,244.5 212.5,245.5C 192.489,245.833 172.489,245.5 152.5,244.5C 152.624,243.893 152.957,243.56 153.5,243.5 Z"/></g>
<g><path style="opacity:1" fill="#dc3c31" d="M 212.5,247.5 C 217.913,245.896 223.247,246.396 228.5,249C 254.777,277.948 281.11,306.948 307.5,336C 300.464,336.991 294.131,335.324 288.5,331C 262.591,303.596 237.258,275.762 212.5,247.5 Z"/></g>
<g><path style="opacity:1" fill="#de382e" d="M 199.5,260.5 C 191.5,260.5 183.5,260.5 175.5,260.5C 179.478,256.187 183.478,251.854 187.5,247.5C 191.494,251.828 195.494,256.161 199.5,260.5 Z"/></g>
<g><path style="opacity:1" fill="#dd372e" d="M 149.5,246.5 C 153.884,246.174 158.217,246.508 162.5,247.5C 137.283,275.428 111.95,303.261 86.5,331C 80.7814,335.013 74.4481,336.68 67.5,336C 94.7276,305.945 122.061,276.111 149.5,246.5 Z"/></g>
<g><path style="opacity:1" fill="#a7a7a8" d="M 40.5,314.5 C 40.5,317.5 40.5,320.5 40.5,323.5C 43.1667,323.5 45.8333,323.5 48.5,323.5C 45.7131,324.477 42.7131,324.81 39.5,324.5C 39.1872,320.958 39.5206,317.625 40.5,314.5 Z"/></g>
<g><path style="opacity:1" fill="#b3b3b3" d="M 334.5,314.5 C 335.479,317.625 335.813,320.958 335.5,324.5C 332.287,324.81 329.287,324.477 326.5,323.5C 329.167,323.5 331.833,323.5 334.5,323.5C 334.5,320.5 334.5,317.5 334.5,314.5 Z"/></g>
</svg>
